<svg xmlns="http://www.w3.org/2000/svg" width="16" height="16" version="1.0"><defs><linearGradient id="b"><stop offset="0" stop-color="#33d17a"/><stop offset="1" stop-color="#8ff0a4"/></linearGradient><linearGradient id="a"><stop offset="0" stop-color="#2dc0af"/><stop offset=".416" stop-color="#2dc0af" stop-opacity=".949"/><stop offset=".439" stop-color="#1f8277" stop-opacity=".945"/><stop offset=".581" stop-color="#26a193" stop-opacity=".929"/><stop offset=".604" stop-color="#2dc0af" stop-opacity=".925"/><stop offset="1" stop-color="#2dc0af" stop-opacity=".888"/></linearGradient></defs><path style="marker:none" d="M12.76.127a1.486 1.486 0 0 0-.502.11L7.307 1.99V2H3c-1.108 0-2 .892-2 2v9c0 1.108.892 2 2 2h10c1.108 0 2-.892 2-2V4c0-.851-.529-1.569-1.275-1.857V1.11c0-.374-.183-.724-.485-.879a.988.988 0 0 0-.48-.105zm.011.727a.296.296 0 0 1 .14.023c.052.027.091.052.091.234v10.721c0 .163-.132.35-.27.387l-.015.004-4.688 1.72V2.5L12.516.912l.006-.002c.1-.039.184-.055.25-.056z" fill="#5e5c64"/></svg>