<?xml version="1.0" encoding="UTF-8"?>
<svg height="128px" viewBox="0 0 128 128" width="128px" xmlns="http://www.w3.org/2000/svg" xmlns:xlink="http://www.w3.org/1999/xlink">
    <linearGradient id="a" gradientTransform="matrix(-1 0 0 -1 135.999924 -176)" gradientUnits="userSpaceOnUse" x1="28" x2="116" y1="-274" y2="-274">
        <stop offset="0" stop-color="#c0bfbc"/>
        <stop offset="0.045" stop-color="#f6f5f4"/>
        <stop offset="0.091" stop-color="#deddda"/>
        <stop offset="0.909" stop-color="#deddda"/>
        <stop offset="0.955" stop-color="#f6f5f4"/>
        <stop offset="1" stop-color="#c0bfbc"/>
    </linearGradient>
    <path d="m 28 57 h 72 c 4.417969 0 8 3.582031 8 8 v 43 c 0 4.417969 -3.582031 8 -8 8 h -72 c -4.417969 0 -8 -3.582031 -8 -8 v -43 c 0 -4.417969 3.582031 -8 8 -8 z m 0 0" fill="#deddda"/>
    <path d="m 100 116 h -72 c -4.417969 0 -8 -3.582031 -8 -8 v -24 c 0 -4.417969 3.582031 -8 8 -8 h 72 c 4.417969 0 8 3.582031 8 8 v 24 c 0 4.417969 -3.582031 8 -8 8 z m 0 0" fill="url(#a)"/>
    <path d="m 27.921875 8.171875 h 72 c 4.417969 0 8 3.578125 8 8 v 88 c 0 4.417969 -3.582031 8 -8 8 h -72 c -4.417969 0 -8 -3.582031 -8 -8 v -88 c 0 -4.421875 3.582031 -8 8 -8 z m 0 0" fill="#f6f5f4"/>
    <path d="m 31.644531 27.039062 l -3.449219 -1.996093 v -8.015625 l 3.464844 -2 l 3.460938 -2 l 6.929687 4 v 8.015625 l -3.441406 1.988281 c -1.890625 1.089844 -3.457031 1.992188 -3.480469 1.996094 c -0.019531 0.003906 -1.589844 -0.890625 -3.484375 -1.988282 z m 0 0" fill="#c01c28"/>
    <g fill-rule="evenodd">
        <path d="m 44 16.597656 v 8 h 58 v -8 z m 0 0" fill="#77767b"/>
        <path d="m 28 30 v 50 h 8 v -50 z m 0 0" fill="#deddda"/>
        <path d="m 38 30 v 15 h 24 v -15 z m 0 0" fill="#deddda"/>
        <path d="m 38 54 v 26 h 16 v -26 z m 0 0" fill="#deddda"/>
        <path d="m 64 30 v 15 h 16 v -15 z m 0 0" fill="#deddda"/>
        <path d="m 82 30 v 20 h 20 v -20 z m 0 0" fill="#deddda"/>
        <path d="m 56 47 v 33 h 24 v -33 z m 0 0" fill="#deddda"/>
        <path d="m 38 47 v 5 h 16 v -5 z m 0 0" fill="#deddda"/>
        <path d="m 82 52 v 5 h 20 v -5 z m 0 0" fill="#deddda"/>
        <path d="m 82 59 v 45 h 20 v -45 z m 0 0" fill="#deddda"/>
        <path d="m 56 82 v 22 h 24 v -22 z m 0 0" fill="#deddda"/>
        <path d="m 28 82 v 22 h 26 v -22 z m 0 0" fill="#deddda"/>
    </g>
    <path d="m 31.644531 27.039062 l -3.449219 -1.996093 v -8.015625 l 3.464844 -2 l 3.460938 -2 l 6.929687 4 v 8.015625 l -3.441406 1.988281 c -1.890625 1.089844 -3.457031 1.992188 -3.480469 1.996094 c -0.019531 0.003906 -1.589844 -0.890625 -3.484375 -1.988282 z m 3.054688 -0.339843 c 0 -1.011719 0 -1.023438 -0.132813 -1.050781 c -0.207031 -0.042969 -3.910156 -0.289063 -3.933594 -0.265626 c -0.027343 0.027344 3.949219 2.335938 4.023438 2.339844 c 0.023438 0 0.042969 -0.460937 0.042969 -1.023437 z m 2.929687 -0.132813 c 1.105469 -0.636718 1.996094 -1.167968 1.984375 -1.179687 c -0.027343 -0.027344 -3.730469 0.21875 -3.933593 0.261719 c -0.132813 0.027343 -0.226563 2.074218 -0.09375 2.074218 c 0.019531 0 0.941406 -0.519531 2.042968 -1.15625 z m -3.359375 -1.90625 c -0.082031 -0.191406 -2.722656 -4.710937 -2.753906 -4.710937 c -0.046875 0 -2.195313 4.402343 -2.164063 4.429687 c 0.085938 0.082032 4.949219 0.359375 4.917969 0.28125 z m 4.347657 -0.109375 c 1.242187 -0.085937 2.265624 -0.164062 2.277343 -0.171875 c 0.03125 -0.027344 -2.121093 -4.429687 -2.164062 -4.429687 c -0.03125 0 -2.671875 4.519531 -2.753907 4.710937 c -0.03125 0.074219 0.183594 0.0625 2.640626 -0.109375 z m -2.074219 -2.65625 c 0.757812 -1.316406 1.390625 -2.425781 1.402343 -2.46875 c 0.015626 -0.0625 -0.539062 -0.078125 -2.824218 -0.078125 c -2.304688 0 -2.835938 0.015625 -2.820313 0.078125 c 0.03125 0.125 2.78125 4.863281 2.820313 4.863281 c 0.023437 0 0.660156 -1.078124 1.421875 -2.394531 z m -6.386719 -1.265625 l 0.742188 -1.519531 l -0.855469 -0.492187 c -0.46875 -0.269532 -0.875 -0.503907 -0.898438 -0.515626 c -0.027343 -0.015624 -0.046875 1.027344 -0.042969 2.3125 v 2.335938 l 0.160157 -0.300781 c 0.085937 -0.164063 0.488281 -0.984375 0.894531 -1.820313 z m 10.976562 -1.367187 l -0.015624 -1.175781 l -0.882813 0.511718 l -0.886719 0.511719 l 0.742188 1.519531 c 0.40625 0.835938 0.804687 1.652344 0.882812 1.8125 l 0.144532 0.292969 l 0.015624 -1.148437 c 0.007813 -0.628907 0.007813 -1.675782 0 -2.324219 z m -3.238281 -0.792969 c 0 -0.066406 -2.726562 -4.0625 -2.773437 -4.0625 c -0.042969 0 -2.769532 3.996094 -2.769532 4.0625 c 0 0.019531 1.246094 0.035156 2.769532 0.035156 c 1.527344 0 2.773437 -0.015625 2.773437 -0.035156 z m -5.410156 -1.816406 c 0.621094 -0.917969 1.117187 -1.675782 1.109375 -1.6875 c -0.027344 -0.027344 -3.980469 2.265625 -3.996094 2.316406 c -0.011718 0.042969 1.648438 1.035156 1.730469 1.039062 c 0.015625 0 0.535156 -0.75 1.15625 -1.667968 z m 7.332031 1.160156 c 0.46875 -0.265625 0.84375 -0.503906 0.832032 -0.527344 c -0.015626 -0.054687 -3.96875 -2.347656 -3.996094 -2.320312 c -0.03125 0.03125 2.234375 3.355468 2.277344 3.339844 c 0.023437 -0.007813 0.421874 -0.230469 0.886718 -0.492188 z m 0 0" fill="#f6f5f4"/>
</svg>
